<?xml version="1.0" standalone="no"?>
<!DOCTYPE svg PUBLIC "-//W3C//DTD SVG 20010904//EN"
 "http://www.w3.org/TR/2001/REC-SVG-20010904/DTD/svg10.dtd">
<svg version="1.0" xmlns="http://www.w3.org/2000/svg"
 width="228.000000pt" height="221.000000pt" viewBox="0 0 228.000000 221.000000"
 preserveAspectRatio="xMidYMid meet">

<g transform="translate(0.000000,221.000000) scale(0.100000,-0.100000)"
fill="#000000" stroke="none">
<path d="M875 1672 l-30 -17 28 -3 c18 -2 32 -13 42 -31 16 -33 38 -44 53 -29
11 11 -2 39 -38 80 -17 22 -17 22 -55 0z"/>
<path d="M961 1683 c-1 -6 4 -15 10 -19 13 -8 36 13 25 23 -4 4 -11 1 -15 -6
-7 -11 -10 -11 -14 0 -3 9 -6 10 -6 2z"/>
<path d="M994 1638 c-19 -21 -19 -21 1 -14 11 4 32 10 48 13 41 8 43 23 4 23
-22 0 -40 -7 -53 -22z"/>
<path d="M1097 1636 c-10 -8 -35 -17 -55 -21 -40 -7 -72 -30 -72 -52 0 -16 26
-18 35 -2 4 6 21 9 39 8 75 -5 94 0 100 27 4 15 2 32 -5 40 -14 17 -19 17 -42
0z"/>
<path d="M1236 1634 c-12 -30 -6 -44 18 -44 27 0 36 -16 36 -63 1 -31 1 -31
16 -12 8 11 12 26 8 35 -4 8 -9 26 -12 40 -5 22 -38 59 -53 60 -4 0 -10 -7
-13 -16z"/>
<path d="M1298 1634 c12 -8 22 -26 22 -39 0 -13 4 -26 9 -30 16 -9 23 14 17
51 -6 30 -10 34 -39 34 -31 0 -31 0 -9 -16z"/>
<path d="M806 1632 c-5 -9 -3 -27 8 -59 6 -19 15 -23 49 -23 24 0 53 -7 65
-16 20 -14 22 -14 22 3 -1 32 -62 89 -102 97 -20 4 -39 3 -42 -2z"/>
<path d="M740 1616 c-9 -12 -8 -15 8 -13 12 0 18 6 15 14 -6 16 -8 16 -23 -1z"/>
<path d="M1360 1620 c0 -5 4 -10 9 -10 6 0 13 5 16 10 3 6 -1 10 -9 10 -9 0
-16 -4 -16 -10z"/>
<path d="M1370 1590 c-12 -8 -12 -10 5 -10 11 0 31 -3 45 -6 l25 -5 -25 15
c-30 18 -31 18 -50 6z"/>
<path d="M1160 1564 c0 -8 5 -12 10 -9 6 3 10 10 10 16 0 5 -4 9 -10 9 -5 0
-10 -7 -10 -16z"/>
<path d="M1199 1560 c-13 -10 -19 -19 -13 -20 6 0 19 9 29 20 23 26 14 26 -16
0z"/>
<path d="M1223 1546 c-27 -25 -33 -39 -34 -76 -1 -27 -4 -35 -6 -20 -6 34 -50
68 -80 62 -25 -5 -28 -14 -13 -43 6 -10 7 -19 2 -19 -5 0 -14 12 -21 26 -10
22 -9 30 4 44 8 9 15 18 15 21 0 7 -68 4 -76 -3 -4 -5 -16 -8 -26 -8 -28 0
-21 -23 12 -42 17 -9 30 -24 30 -33 0 -14 -4 -13 -27 5 -50 38 -104 71 -121
72 -53 4 -82 -3 -82 -19 -1 -21 -23 -53 -37 -53 -5 0 -18 9 -28 20 -10 11 -24
20 -32 20 -21 0 -15 -29 12 -56 23 -23 25 -31 19 -69 -3 -24 -13 -52 -21 -62
-8 -10 -12 -13 -9 -8 2 6 -5 11 -16 11 -20 0 -20 0 1 -14 24 -16 29 -37 6 -28
-20 7 -71 -37 -61 -53 5 -7 23 -11 41 -9 19 1 37 -1 41 -5 4 -4 7 -38 6 -76
-2 -58 1 -73 23 -102 13 -19 29 -44 34 -56 12 -27 36 -30 45 -7 3 9 6 46 6 83
0 93 22 159 67 206 44 43 119 82 180 91 35 5 43 10 44 28 1 19 2 18 8 -4 6
-20 15 -26 51 -32 93 -13 166 -61 202 -132 16 -30 23 -67 27 -143 6 -108 14
-130 37 -98 7 11 25 33 39 48 14 15 28 40 31 55 5 25 9 27 40 24 46 -6 45 14
-3 54 -37 31 -37 31 -25 73 11 36 11 46 -8 87 -11 26 -20 52 -20 58 0 6 18 22
40 36 22 14 40 28 40 32 0 13 -38 28 -73 28 -47 0 -63 21 -42 53 19 30 16 33
-56 42 -56 7 -56 7 -77 -27 -28 -43 -79 -91 -69 -65 15 40 19 68 13 92 -8 31
-13 30 -53 -9z"/>
<path d="M1116 1541 c-6 -9 44 -35 52 -27 7 8 -19 36 -34 36 -7 0 -15 -4 -18
-9z"/>
<path d="M631 1394 c0 -11 3 -14 6 -6 3 7 2 16 -1 19 -3 4 -6 -2 -5 -13z"/>
<path d="M1631 1234 c0 -11 3 -14 6 -6 3 7 2 16 -1 19 -3 4 -6 -2 -5 -13z"/>
<path d="M914 1075 c-18 -15 -18 -15 7 -9 15 3 53 0 85 -6 91 -17 114 -20 114
-12 0 14 -94 42 -141 42 -25 0 -54 -7 -65 -15z"/>
<path d="M1171 1071 c-61 -25 -29 -35 52 -16 34 8 78 15 97 15 26 0 31 3 20
10 -24 16 -121 10 -169 -9z"/>
<path d="M520 1072 c0 -13 48 -32 65 -25 9 3 14 11 12 17 -4 13 -77 21 -77 8z"/>
<path d="M1653 1041 c-28 -24 -29 -31 -2 -31 29 0 59 18 59 35 0 21 -30 18
-57 -4z"/>
<path d="M539 962 c11 -8 11 -10 0 -14 -10 -3 -9 -6 3 -10 11 -5 15 -2 14 10
-2 9 -9 18 -17 20 -12 3 -12 2 0 -6z"/>
<path d="M597 892 c-24 -26 -21 -32 11 -32 30 0 52 16 52 37 0 19 -44 16 -63
-5z"/>
<path d="M771 826 c-6 -25 -8 -52 -5 -61 4 -9 -1 -24 -11 -35 -9 -10 -14 -24
-10 -30 9 -15 25 -2 25 20 0 10 5 22 11 26 7 4 10 -5 7 -27 -2 -19 2 -34 9
-36 8 -3 10 6 6 31 -7 44 12 49 22 6 4 -16 11 -30 16 -30 14 0 11 18 -7 45 -9
13 -13 29 -10 34 10 16 -15 101 -29 101 -7 0 -18 -20 -24 -44z m39 -41 c0 -8
-7 -15 -15 -15 -8 0 -15 7 -15 15 0 8 7 15 15 15 8 0 15 -7 15 -15z"/>
<path d="M1420 818 c-11 -45 -11 -53 4 -63 12 -9 14 -21 10 -44 -4 -20 -3 -31
5 -31 6 0 11 14 11 30 0 17 5 39 12 49 9 14 8 29 -2 65 -7 25 -16 46 -20 46
-5 0 -14 -23 -20 -52z m35 -29 c10 -15 -1 -23 -20 -15 -9 3 -13 10 -10 16 8
13 22 13 30 -1z"/>
<path d="M1632 764 c15 -15 31 -25 35 -20 12 12 -12 41 -38 44 l-24 4 27 -28z"/>
<path d="M1057 764 c-36 -20 -30 -36 19 -52 45 -15 95 -10 131 14 l25 16 -28
19 c-35 23 -107 24 -147 3z"/>
<path d="M1464 738 c4 -10 8 -26 11 -35 4 -12 8 -14 17 -5 9 9 7 17 -10 35
-18 17 -22 18 -18 5z"/>
<path d="M1393 721 c-7 -10 -9 -22 -6 -25 12 -12 21 -6 25 19 6 30 -3 32 -19
6z"/>
</g>
</svg>
